# This file uses centimeters as units for non-parametric coordinates.

mtllib Default.mtl
g default
v 2.500001 -0.436560 -4.330127
v -2.499999 -0.436560 -4.330128
v -5.000000 -0.436560 -0.000001
v -2.500000 -0.436560 4.330127
v 2.500000 -0.436560 4.330127
v 5.000000 -0.436560 0.000000
v 2.500001 0.436560 -4.330127
v -2.499999 0.436560 -4.330128
v -5.000000 0.436560 -0.000001
v -2.500000 0.436560 4.330127
v 2.500000 0.436560 4.330127
v 5.000000 0.436560 0.000000
v 0.000000 -0.436560 0.000000
v 2.400264 0.436560 -4.157376
v -2.400262 0.436560 -4.157377
v -4.800525 0.436560 -0.000001
v -2.400263 0.436560 4.157376
v 2.400262 0.436560 4.157377
v 4.800525 0.436560 -0.000000
v 2.400264 0.748710 -4.157376
v -2.400262 0.748710 -4.157377
v 0.000000 0.748710 -0.000000
v -4.800525 0.748710 -0.000001
v -2.400263 0.748710 4.157376
v 2.400262 0.748710 4.157377
v 4.800525 0.748710 -0.000000
vt 0.578125 0.020934
vt 0.421875 0.020934
vt 0.343750 0.156250
vt 0.421875 0.291566
vt 0.578125 0.291566
vt 0.656250 0.156250
vt 0.375000 0.312500
vt 0.416667 0.312500
vt 0.458333 0.312500
vt 0.500000 0.312500
vt 0.541667 0.312500
vt 0.583333 0.312500
vt 0.625000 0.312500
vt 0.375000 0.688440
vt 0.416667 0.688440
vt 0.458333 0.688440
vt 0.500000 0.688440
vt 0.541667 0.688440
vt 0.583333 0.688440
vt 0.625000 0.688440
vt 0.914665 0.023157
vt 0.758415 0.023157
vt 0.680290 0.158474
vt 0.758415 0.293790
vt 0.914665 0.293790
vt 0.992790 0.158474
vt 0.500000 0.150000
vt 0.500000 0.843750
vt 0.575157 0.973879
vt 0.424884 0.973902
vt 0.349727 0.843773
vt 0.424843 0.713621
vt 0.575116 0.713598
vt 0.650273 0.843727
vt 0.570599 0.966192
vt 0.429262 0.966111
vt 0.358663 0.843669
vt 0.429401 0.721308
vt 0.570738 0.721389
vt 0.641337 0.843831
vt 0.986813 0.158450
vt 0.911697 0.288603
vt 0.911657 0.028321
vt 0.761383 0.028345
vt 0.686267 0.158497
vt 0.761424 0.288626
vn 0.000000 0.000000 -1.000000
vn 0.000000 0.000000 -1.000000
vn 0.000000 0.000000 -1.000000
vn 0.000000 0.000000 -1.000000
vn -0.866025 0.000000 -0.500000
vn -0.866025 0.000000 -0.500000
vn -0.866025 0.000000 -0.500000
vn -0.866025 0.000000 -0.500000
vn -0.866026 0.000000 0.500000
vn -0.866026 0.000000 0.500000
vn -0.866026 0.000000 0.500000
vn -0.866026 0.000000 0.500000
vn -0.000000 0.000000 1.000000
vn -0.000000 0.000000 1.000000
vn -0.000000 0.000000 1.000000
vn -0.000000 0.000000 1.000000
vn 0.866025 0.000000 0.500000
vn 0.866025 0.000000 0.500000
vn 0.866025 0.000000 0.500000
vn 0.866025 0.000000 0.500000
vn 0.866026 0.000000 -0.500000
vn 0.866026 0.000000 -0.500000
vn 0.866026 0.000000 -0.500000
vn 0.866026 0.000000 -0.500000
vn 0.000000 -1.000000 -0.000000
vn 0.000000 -1.000000 -0.000000
vn 0.000000 -1.000000 -0.000000
vn 0.000000 -1.000000 -0.000000
vn 0.000000 -1.000000 0.000000
vn 0.000000 -1.000000 0.000000
vn 0.000000 -1.000000 -0.000000
vn 0.000000 1.000000 -0.000000
vn 0.000000 1.000000 -0.000000
vn 0.000000 1.000000 -0.000000
vn 0.000000 1.000000 -0.000000
vn 0.000000 1.000000 0.000000
vn 0.000000 1.000000 0.000000
vn 0.000000 1.000000 -0.000000
vn 0.000000 1.000000 0.000000
vn 0.000000 1.000000 0.000000
vn 0.000000 1.000000 0.000000
vn 0.000000 1.000000 0.000000
vn 0.000000 1.000000 -0.000000
vn 0.000000 1.000000 -0.000000
vn 0.000000 1.000000 -0.000000
vn 0.000000 1.000000 -0.000000
vn 0.000000 1.000000 -0.000000
vn 0.000000 1.000000 -0.000000
vn 0.000000 1.000000 -0.000000
vn 0.000000 1.000000 -0.000000
vn 0.000000 1.000000 -0.000000
vn 0.000000 1.000000 -0.000000
vn 0.000000 1.000000 -0.000000
vn 0.000000 1.000000 -0.000000
vn 0.000000 1.000000 0.000000
vn 0.000000 1.000000 0.000000
vn 0.000000 1.000000 0.000000
vn 0.000000 1.000000 0.000000
vn 0.000000 1.000000 0.000000
vn 0.000000 1.000000 0.000000
vn 0.000000 1.000000 0.000000
vn 0.000000 1.000000 0.000000
vn 0.000000 0.000000 -1.000000
vn 0.000000 0.000000 -1.000000
vn 0.000000 0.000000 -1.000000
vn 0.000000 0.000000 -1.000000
vn -0.866025 0.000000 -0.500000
vn -0.866025 0.000000 -0.500000
vn -0.866025 0.000000 -0.500000
vn -0.866025 0.000000 -0.500000
vn -0.866026 0.000000 0.500000
vn -0.866026 0.000000 0.500000
vn -0.866026 0.000000 0.500000
vn -0.866026 0.000000 0.500000
vn -0.000000 0.000000 1.000000
vn -0.000000 0.000000 1.000000
vn -0.000000 0.000000 1.000000
vn -0.000000 0.000000 1.000000
vn 0.866025 0.000000 0.500000
vn 0.866025 0.000000 0.500000
vn 0.866025 0.000000 0.500000
vn 0.866025 0.000000 0.500000
vn 0.866025 0.000000 -0.500000
vn 0.866025 0.000000 -0.500000
vn 0.866025 0.000000 -0.500000
vn 0.866025 0.000000 -0.500000
s off
g pCylinder1
usemtl initialShadingGroup
f 1/7/1 2/8/2 8/15/3 7/14/4
f 2/8/5 3/9/6 9/16/7 8/15/8
f 3/9/9 4/10/10 10/17/11 9/16/12
f 4/10/13 5/11/14 11/18/15 10/17/16
f 5/11/17 6/12/18 12/19/19 11/18/20
f 6/12/21 1/13/22 7/20/23 12/19/24
s 1
f 2/2/25 1/1/26 13/27/27
f 3/3/28 2/2/25 13/27/27
f 4/4/29 3/3/28 13/27/27
f 5/5/30 4/4/29 13/27/27
f 6/6/31 5/5/30 13/27/27
f 1/1/26 6/6/31 13/27/27
s 2
f 20/35/32 21/36/33 22/28/34
f 21/36/33 23/37/35 22/28/34
f 23/37/35 24/38/36 22/28/34
f 24/38/36 25/39/37 22/28/34
f 25/39/37 26/40/38 22/28/34
f 26/40/38 20/35/32 22/28/34
s off
f 7/25/39 8/24/40 15/46/41 14/42/42
f 8/24/43 9/23/44 16/45/45 15/46/46
f 9/23/47 10/22/48 17/44/49 16/45/50
f 10/22/51 11/21/52 18/43/53 17/44/54
f 11/21/55 12/26/56 19/41/57 18/43/58
f 12/26/59 7/25/60 14/42/61 19/41/62
f 14/29/63 15/30/64 21/36/65 20/35/66
f 15/30/67 16/31/68 23/37/69 21/36/70
f 16/31/71 17/32/72 24/38/73 23/37/74
f 17/32/75 18/33/76 25/39/77 24/38/78
f 18/33/79 19/34/80 26/40/81 25/39/82
f 19/34/83 14/29/84 20/35/85 26/40/86
